<?xml version="1.0" standalone="no"?>
<!DOCTYPE svg PUBLIC "-//W3C//DTD SVG 20010904//EN"
 "http://www.w3.org/TR/2001/REC-SVG-20010904/DTD/svg10.dtd">
<svg version="1.0" xmlns="http://www.w3.org/2000/svg"
 width="150.000000pt" height="320.000000pt" viewBox="0 0 320.000000 320.000000"
 preserveAspectRatio="xMidYMid meet">

<g transform="translate(0.000000,320.000000) scale(0.100000,-0.100000)"
fill="#033464" stroke="none">
<path d="M1457 2265 c-296 -62 -537 -283 -612 -560 -17 -63 -30 -76 -51 -55
-5 5 -70 35 -144 65 -214 88 -280 146 -280 247 0 57 16 91 62 134 48 46 94 66
163 71 104 9 180 -24 241 -104 l33 -43 21 66 c21 63 22 66 4 79 -67 50 -259
78 -376 56 -138 -27 -263 -116 -312 -221 -35 -75 -36 -183 -2 -255 46 -100
110 -152 271 -220 217 -91 280 -137 306 -224 44 -147 -146 -291 -335 -252
-101 21 -183 82 -209 155 -9 28 -11 25 -43 -60 -19 -49 -34 -90 -34 -90 0 -6
112 -47 162 -59 84 -20 244 -19 322 1 136 35 268 131 316 231 15 30 25 73 28
115 4 56 0 75 -22 125 -15 32 -39 70 -53 85 l-25 27 22 72 c65 215 212 389
415 491 55 28 185 71 193 64 2 -3 -35 -99 -83 -213 -48 -114 -154 -365 -235
-558 -81 -192 -155 -367 -164 -388 l-15 -38 51 3 52 3 53 129 c29 70 58 134
64 142 9 11 60 14 260 14 226 0 249 -2 257 -17 5 -10 26 -75 47 -145 l39 -128
134 0 c122 0 133 1 128 18 -3 9 -49 159 -102 332 -144 471 -165 541 -179 590
-11 42 -26 89 -61 198 -23 72 -21 75 39 67 77 -11 174 -42 247 -81 57 -30 61
-31 35 -9 -42 36 -199 112 -270 131 -85 22 -274 27 -358 9z m182 -586 c46
-148 80 -276 77 -284 -8 -22 -414 -22 -422 -1 -5 13 193 498 222 543 8 12 20
20 28 17 7 -3 49 -123 95 -275z"/>
<path d="M2543 2216 c-121 -31 -245 -121 -286 -208 -42 -89 -41 -196 4 -283
44 -85 115 -138 274 -204 156 -65 187 -82 236 -128 84 -79 88 -180 10 -261
-44 -45 -90 -69 -167 -84 -132 -26 -283 43 -326 151 l-14 34 -29 -84 c-17 -46
-31 -86 -33 -90 -4 -10 89 -47 160 -64 84 -20 244 -19 322 1 134 35 269 133
318 233 34 69 32 188 -4 256 -29 56 -92 120 -155 159 -23 14 -97 48 -163 75
-154 63 -213 101 -246 157 -77 131 28 279 206 291 109 8 203 -41 255 -131 9
-15 14 -7 34 48 23 65 23 67 5 81 -69 52 -288 80 -401 51z"/>
</g>
</svg>
